<svg width="772.9090576171875" height="421.4239962983195" viewBox="0 0 350 190.8353864543091" class="css-1j8o68f"><defs id="SvgjsDefs1019"><linearGradient id="SvgjsLinearGradient1024"><stop id="SvgjsStop1025" stop-color="#8f5e25" offset="0"></stop><stop id="SvgjsStop1026" stop-color="#fbf4a1" offset="0.5"></stop><stop id="SvgjsStop1027" stop-color="#8f5e25" offset="1"></stop></linearGradient><linearGradient id="SvgjsLinearGradient1028"><stop id="SvgjsStop1029" stop-color="#8f5e25" offset="0"></stop><stop id="SvgjsStop1030" stop-color="#fbf4a1" offset="0.5"></stop><stop id="SvgjsStop1031" stop-color="#8f5e25" offset="1"></stop></linearGradient></defs><g id="SvgjsG1020" featurekey="symbolFeature-0" transform="matrix(1.5801353313275317,0,0,1.5801353313275317,95.99322891281997,-29.548531901372428)" fill="url(#SvgjsLinearGradient1024)"><path xmlns="http://www.w3.org/2000/svg" d="M94.3,71.1H53.7v-2.3h32.9v-1.7H53.7V47.7L83,63.2l0.8-1.5L53.7,45.7v-2.7l29.1,15.4l0.8-1.5L53.7,41.1V31  H52v9.2l-5.4-2.9V18.7h-1.7v17.7l-13.4-7.1v0l0,0l0,0l0,0L5.7,43.5v6.6l5.7-3.1v25.8h20.1v0H52v8.4h1.7v-8.4h40.6V71.1z M52,67.1  h-5.4V43.9l5.4,2.9V67.1z M52,42.2v2.7L46.5,42v-2.7L52,42.2z M44.8,38.4V41L31.4,34v-2.7L44.8,38.4z M17.2,43.8L31.4,36v0L44.8,43  v24h-9.1V57H28v10.1h-4.3h-6.5V43.8z M44.8,68.8v2.3h-9.1v-2.3H44.8z M46.5,71.1v-2.3H52v2.3H46.5z"></path></g><g id="SvgjsG1021" featurekey="nameFeature-0" transform="matrix(2.4471022808014022,0,0,2.4471022808014022,2.8445012071162865,89.94434772246316)" fill="url(#SvgjsLinearGradient1028)"><path d="M3.72 39.56 c-3.24 1.48 -5.2 -0.28 -4.84 -3.2 c0.12 -0.96 0.32 -2.04 0.72 -3 c2.88 -6.88 6.6 -13.2 11.92 -18.48 c1.08 -1.08 2.28 -2.04 3.72 -2.64 c2.4 -0.96 3.72 0 3.32 2.48 c-0.44 2.88 -2.12 5.16 -3.96 7.24 c-3.6 4 -7.84 7.16 -12.72 9.4 c-0.48 0.24 -0.76 0.52 -0.96 0.96 c-0.52 1.2 -0.96 2.44 -1.16 3.76 c-0.36 2.76 1.16 3.92 3.68 2.84 c2.48 -1.08 4.48 -2.88 6.52 -4.52 l2.44 -2 c0.12 -0.08 0.44 -0.2 0.52 -0.12 c0.32 0.24 0.08 0.48 -0.12 0.64 c-3.04 2.32 -5.52 5 -9.08 6.64 z M2.36 30.439999999999998 c3.8 -1.72 7 -4.28 10.04 -7.04 c2.32 -2.16 4.24 -4.76 5.28 -7.84 c0.32 -0.84 0.56 -1.92 -0.2 -2.64 c-0.88 -0.8 -1.72 0.08 -2.52 0.36 c-0.44 0.16 -0.84 0.48 -1.2 0.76 c-5.16 4.44 -8.96 9.96 -11.76 16.12 c-0.2 0.32 0.04 0.44 0.36 0.28 z M29.348 32.44 c0.4 0.32 -0.04 0.6 -0.24 0.76 c-2.16 2.12 -4.04 4.04 -6.6 5.64 c-0.48 0.28 -0.92 0.56 -1.4 0.76 c-0.92 0.36 -1.84 0.4 -2.64 -0.24 c-0.84 -0.68 -0.8 -1.64 -0.6 -2.56 c0.16 -0.68 0.4 -1.36 0.6 -2 c-1.76 0.84 -2.8 2.64 -4.44 3.68 c-0.56 0.36 -1.08 0.76 -1.68 1.04 c-0.72 0.32 -1.4 0.48 -2.04 -0.08 c-0.6 -0.56 -0.64 -1.32 -0.48 -2.04 c0.6 -2.84 4 -5.64 6.96 -5.72 c0.56 0 1.16 0.2 1.68 0.52 c0.24 0.16 0.44 0.56 0.8 0.36 c0.44 -0.24 0.8 -1 1.28 -0.2 c0.36 0.52 -0.16 0.96 -0.36 1.44 c-0.48 1 -1.12 1.96 -1.36 3.08 c-0.16 0.72 -0.4 1.4 0.32 1.96 c0.72 0.52 1.36 0.28 2.04 -0.08 c1.44 -0.68 2.72 -1.64 3.88 -2.76 c1.2 -1.16 2.28 -2 3.48 -3.16 c0.2 -0.24 0.48 -0.64 0.8 -0.4 z M17.628 34.24 c0.32 -0.32 0.68 -0.68 0.48 -1.2 c-0.28 -0.68 -0.92 -0.36 -1.32 -0.44 c-2.44 0 -5.04 2 -5.96 4.52 c-0.2 0.64 -0.56 1.28 0.12 1.8 c0.6 0.52 1.16 0.04 1.6 -0.24 c1.96 -1.16 3.48 -2.84 5.08 -4.44 z M53.56399999999999 39.72 c-1.08 -1.04 -0.68 -2.28 -0.24 -3.48 c0.2 -0.44 0.44 -0.84 0.56 -1.28 c0.32 -0.84 1.4 -1.8 0.52 -2.48 c-0.6 -0.48 -1.68 0.36 -2.44 0.88 c-1.32 0.84 -2.4 1.92 -3.44 3.04 c-0.4 0.44 -0.84 0.84 -1.24 1.28 c-0.24 0.2 -0.52 0.24 -0.76 0.08 c-0.28 -0.2 -0.12 -0.44 0 -0.68 c0.48 -1 0.96 -2.04 1.4 -3.08 c0.2 -0.48 0.68 -1.08 0.16 -1.44 c-0.4 -0.28 -0.96 0.2 -1.44 0.44 c-2.24 1.2 -3.6 3.32 -5.24 5.12 c-0.2 0.2 -0.28 0.44 -0.48 0.64 c-0.24 0.28 -0.48 0.76 -0.96 0.48 c-0.44 -0.24 -0.16 -0.72 -0.12 -1.08 c0.44 -2.04 1.56 -3.8 2.24 -5.72 c0.08 -0.24 0.36 -0.48 0.64 -0.36 c0.24 0.12 0.24 0.44 0.16 0.72 c-0.52 1.28 -1.2 2.68 -1.68 3.92 c-0.12 0.2 0.16 0.16 0.28 0.04 c0.88 -0.76 1.56 -1.76 2.44 -2.56 c0.56 -0.48 1.08 -0.96 1.68 -1.36 c0.92 -0.6 1.92 -1.72 3 -1.08 c1.12 0.64 0.16 1.88 0 2.84 c-0.04 0.24 -0.16 0.44 -0.04 0.56 c0.08 0.08 0.24 0.04 0.48 -0.2 c1.48 -1.16 2.4 -2.52 4.32 -3.12 c0.6 -0.2 1.2 -0.44 1.72 -0.04 c0.6 0.52 0.48 1.24 0.24 1.88 c-0.4 1.04 -0.96 2 -1.36 3.04 c-0.32 0.88 -0.6 1.96 0.24 2.6 c0.72 0.64 1.64 0.2 2.4 -0.24 c1.36 -0.8 3.4 -2.44 8.16 -6.6 c0.16 -0.16 0.4 -0.44 0.6 -0.08 c0.08 0.08 -0.12 0.36 -0.24 0.48 c-2.8 2.64 -4.84 4.6 -8.12 6.68 c-1.04 0.64 -2.32 1.28 -3.44 0.16 z M81.79199999999999 32.44 c0.4 0.32 -0.04 0.6 -0.24 0.76 c-2.16 2.12 -4.04 4.04 -6.6 5.64 c-0.48 0.28 -0.92 0.56 -1.4 0.76 c-0.92 0.36 -1.84 0.4 -2.64 -0.24 c-0.84 -0.68 -0.8 -1.64 -0.6 -2.56 c0.16 -0.68 0.4 -1.36 0.6 -2 c-1.76 0.84 -2.8 2.64 -4.44 3.68 c-0.56 0.36 -1.08 0.76 -1.68 1.04 c-0.72 0.32 -1.4 0.48 -2.04 -0.08 c-0.6 -0.56 -0.64 -1.32 -0.48 -2.04 c0.6 -2.84 4 -5.64 6.96 -5.72 c0.56 0 1.16 0.2 1.68 0.52 c0.24 0.16 0.44 0.56 0.8 0.36 c0.44 -0.24 0.8 -1 1.28 -0.2 c0.36 0.52 -0.16 0.96 -0.36 1.44 c-0.48 1 -1.12 1.96 -1.36 3.08 c-0.16 0.72 -0.4 1.4 0.32 1.96 c0.72 0.52 1.36 0.28 2.04 -0.08 c1.44 -0.68 2.72 -1.64 3.88 -2.76 c1.2 -1.16 2.28 -2 3.48 -3.16 c0.2 -0.24 0.48 -0.64 0.8 -0.4 z M70.07199999999999 34.24 c0.32 -0.32 0.68 -0.68 0.48 -1.2 c-0.28 -0.68 -0.92 -0.36 -1.32 -0.44 c-2.44 0 -5.04 2 -5.96 4.52 c-0.2 0.64 -0.56 1.28 0.12 1.8 c0.6 0.52 1.16 0.04 1.6 -0.24 c1.96 -1.16 3.48 -2.84 5.08 -4.44 z M85.17999999999999 28.64 c-0.44 0.04 -0.72 -0.24 -0.8 -0.68 c-0.16 -1 0.76 -1.16 1.32 -1.44 c0.4 -0.2 0.68 0.2 0.8 0.64 c-0.24 0.64 -0.48 1.36 -1.32 1.48 z M83.3 39.68 c-1.48 0.44 -2.68 -0.56 -2.56 -2.16 c0.44 -1.68 1.24 -3.36 2.04 -5.04 c0.16 -0.32 0.44 -0.6 0.76 -0.36 c0.4 0.28 0.04 0.6 -0.08 0.88 c-0.52 1.2 -1.12 2.4 -1.56 3.64 c-0.24 0.72 -0.56 1.56 0.24 2.24 c0.52 0.4 1.4 0 2.04 -0.24 c2.52 -1.04 4.52 -3.96 7.44 -6.12 c0.2 -0.12 0.36 -0.44 0.6 -0.12 c0.2 0.24 -0.04 0.44 -0.24 0.56 c-3.88 2.8 -4.6 5.56 -8.68 6.72 z M92.16799999999999 40.88 c-0.6 -0.72 -0.04 -1.52 1.04 -2.04 c1.04 -0.52 1.24 -1.32 0.92 -2.04 c-1.04 -2.36 -1.36 -3 -1.12 -3.96 c0.24 -0.84 0.92 -1.4 1.72 -1.44 c0.76 -0.04 1.28 0.32 1.6 0.96 c0.28 0.56 0.2 1.48 -0.52 1.96 c-0.16 0.08 -0.44 0.24 -0.6 0.08 c-0.24 -0.16 -0.12 -0.32 0.08 -0.52 c1.04 -0.8 -0.08 -2.2 -0.96 -1.52 c-0.96 0.72 -0.56 1.88 0.76 4.72 c0.12 0.24 0.4 0.6 0.88 0.36 c0.92 -0.4 2.08 -0.92 3.2 -1.44 c2.04 -0.96 3.88 -2.12 5.76 -3.36 c0.24 -0.16 0.56 -0.6 0.84 -0.16 c0.24 0.36 -0.16 0.52 -0.44 0.72 c-2.64 1.88 -5.4 3.44 -8.44 4.6 c-0.96 0.36 -1.68 1 -1.92 1.92 c-0.28 1 -2.04 2.08 -2.8 1.16 z M93.448 40.44 c0.92 -0.36 1.28 -1.68 0.48 -1.28 c-1.72 0.84 -1.24 1.6 -0.48 1.28 z M107.596 40.52 c-1.48 0.4 -3.04 -0.48 -3.36 -1.92 c-0.64 -2.72 1.32 -6.24 3.92 -7.12 c2.4 -0.84 4.32 0.52 4.32 3.04 l0 1 c0 0.88 2.32 -0.8 4.48 -1.72 c1.32 -0.6 2.84 -1.12 4.24 -1.44 c0.2 -0.04 0.6 -0.12 0.6 0.28 c0 0.28 -0.24 0.28 -0.44 0.32 c-3.12 0.76 -5.64 2.28 -8.52 3.56 c-0.8 0.36 -1.32 0.8 -1.8 1.44 c-0.88 1.16 -1.92 2.2 -3.44 2.56 z M110.116 36.28 c0.96 0.24 1.64 -0.64 1.68 -2.28 c0.04 -0.48 -0.08 -1.12 -0.6 -1.48 c-0.64 -0.48 -0.8 0.56 -1.44 0.64 c-0.88 0.12 -1.12 1.04 -1.04 1.88 c0.08 0.76 0.72 1.08 1.4 1.24 z M107.036 39.72 c1.28 0 2.16 -0.8 2.96 -1.72 c0.32 -0.32 0.4 -0.68 -0.12 -0.88 c-2.08 -0.8 -2.56 -2.12 -1.48 -4.04 c0.08 -0.16 0.24 -0.4 0 -0.52 c-0.12 -0.08 -0.36 0 -0.52 0.08 c-1.52 0.64 -3.12 3.36 -2.96 5 c0.12 1.4 0.8 2.08 2.12 2.08 z M130.384 39.76 c-0.76 -0.8 -0.4 -1.88 -0.16 -2.84 c0.28 -1.08 0.76 -2.12 0.96 -3.2 c0.24 -1.16 -0.36 -1.6 -1.48 -1.16 c-1.76 0.64 -3.28 1.72 -4.6 3.04 c-1.16 1.16 -2.24 2.32 -3.4 3.44 c-0.28 0.28 -0.56 0.88 -1.12 0.56 c-0.36 -0.2 -0.24 -0.72 -0.16 -1.08 c0.36 -2.28 1.52 -4.2 2.44 -6.28 c0.08 -0.2 0.32 -0.32 0.44 -0.2 c0.12 0.2 0.2 0.52 0.12 0.72 c-0.48 1.16 -1.04 2.32 -1.52 3.48 c-0.2 0.48 -0.44 1 -0.56 1.48 c-0.04 0.2 -0.12 0.76 0.36 0.28 c2 -1.88 3.68 -4.04 6.16 -5.36 c1.04 -0.56 2.16 -1.76 3.4 -0.8 c1.32 1 0.6 2.44 0.24 3.68 c-0.24 0.92 -0.6 1.76 -0.76 2.68 c-0.2 1 0.16 1.48 1.32 1 c1.92 -0.84 3.48 -2.2 5.08 -3.44 c1.4 -1.12 2.48 -2.04 3.88 -3.16 c0.2 -0.2 0.56 -0.52 0.8 -0.2 c0.16 0.2 -0.2 0.4 -0.4 0.56 c-2.4 2.08 -4.52 3.92 -7.12 5.76 c-0.4 0.28 -0.8 0.52 -1.2 0.68 c-0.88 0.4 -1.8 1.28 -2.72 0.36 z"></path></g></svg>