{
	"asset":{
		"generator":"Khronos glTF Blender I/O v3.5.30",
		"version":"2.0"
	},
	"extensionsUsed":[
		"KHR_materials_transmission",
		"KHR_materials_specular",
		"KHR_materials_ior"
	],
	"scene":0,
	"scenes":[
		{
			"name":"Scene",
			"nodes":[
				0
			]
		}
	],
	"nodes":[
		{
			"mesh":0,
			"name":"Line003",
			"rotation":[
				0.7071068286895752,
				0,
				0,
				0.7071068286895752
			]
		}
	],
	"materials":[
		{
			"doubleSided":true,
			"extensions":{
				"KHR_materials_transmission":{
					"transmissionFactor":1
				},
				"KHR_materials_specular":{
					"specularColorFactor":[
						1,
						1,
						1
					]
				},
				"KHR_materials_ior":{
					"ior":1.4500000476837158
				}
			},
			"name":"wire_028028177.001",
			"pbrMetallicRoughness":{
				"baseColorTexture":{
					"index":0
				},
				"metallicFactor":0,
				"roughnessFactor":0.8211145401000977
			}
		}
	],
	"meshes":[
		{
			"name":"Line003.001",
			"primitives":[
				{
					"attributes":{
						"POSITION":0,
						"TEXCOORD_0":1,
						"NORMAL":2
					},
					"indices":3,
					"material":0
				}
			]
		}
	],
	"textures":[
		{
			"sampler":0,
			"source":0
		}
	],
	"images":[
		{
			"bufferView":4,
			"mimeType":"image/jpeg",
			"name":"Vase_1_Vase_Diffuse"
		}
	],
	"accessors":[
		{
			"bufferView":0,
			"componentType":5126,
			"count":20728,
			"max":[
				9.72089958190918,
				9.72089958190918,
				0.385699987411499
			],
			"min":[
				-9.72089958190918,
				-9.72089958190918,
				-30.146799087524414
			],
			"type":"VEC3"
		},
		{
			"bufferView":1,
			"componentType":5126,
			"count":20728,
			"type":"VEC2"
		},
		{
			"bufferView":2,
			"componentType":5126,
			"count":20728,
			"type":"VEC3"
		},
		{
			"bufferView":3,
			"componentType":5123,
			"count":119520,
			"type":"SCALAR"
		}
	],
	"bufferViews":[
		{
			"buffer":0,
			"byteLength":248736,
			"byteOffset":0,
			"target":34962
		},
		{
			"buffer":0,
			"byteLength":165824,
			"byteOffset":248736,
			"target":34962
		},
		{
			"buffer":0,
			"byteLength":248736,
			"byteOffset":414560,
			"target":34962
		},
		{
			"buffer":0,
			"byteLength":239040,
			"byteOffset":663296,
			"target":34963
		},
		{
			"buffer":0,
			"byteLength":887416,
			"byteOffset":902336
		}
	],
	"samplers":[
		{
			"magFilter":9729,
			"minFilter":9987
		}
	],
	"buffers":[
		{
			"byteLength":1789752,
			"uri":"data:application/octet-stream;base64,"
		}
	]
}
